<?xml version="1.0" encoding="UTF-8" standalone="no"?>
<svg
   xmlns:dc="http://purl.org/dc/elements/1.1/"
   xmlns:cc="http://creativecommons.org/ns#"
   xmlns:rdf="http://www.w3.org/1999/02/22-rdf-syntax-ns#"
   xmlns:svg="http://www.w3.org/2000/svg"
   xmlns="http://www.w3.org/2000/svg"
   xmlns:sodipodi="http://sodipodi.sourceforge.net/DTD/sodipodi-0.dtd"
   xmlns:inkscape="http://www.inkscape.org/namespaces/inkscape"
   viewBox="0 0 16 16"
   version="1.1"
   id="svg6"
   sodipodi:docname="consume.svg"
   inkscape:version="0.92.2 5c3e80d, 2017-08-06">
  <sodipodi:namedview
     pagecolor="#ffffff"
     bordercolor="#666666"
     borderopacity="1"
     objecttolerance="10"
     gridtolerance="10"
     guidetolerance="10"
     inkscape:pageopacity="0"
     inkscape:pageshadow="2"
     inkscape:window-width="956"
     inkscape:window-height="1024"
     id="namedview8"
     showgrid="false"
     inkscape:zoom="14.75"
     inkscape:cx="1.0623504"
     inkscape:cy="8"
     inkscape:window-x="2560"
     inkscape:window-y="0"
     inkscape:window-maximized="0"
     inkscape:current-layer="svg6" />
  <metadata
     id="metadata10">
    <rdf:RDF>
      <cc:Work
         rdf:about="">
        <dc:format>image/svg+xml</dc:format>
        <dc:type
           rdf:resource="http://purl.org/dc/dcmitype/StillImage" />
        <dc:title />
      </cc:Work>
    </rdf:RDF>
  </metadata>
  <defs
     id="defs3051" />
  <path
     d="M 7.9785156 1.8105469 A 6.3280063 6.3280063 0 0 0 6.7226562 1.9414062 A 6.3280063 6.3280063 0 0 0 1.6777344 8.1269531 A 6.3280063 6.3280063 0 0 0 6.7011719 14.330078 A 6.3280063 6.3280063 0 0 0 13.800781 10.681641 L 8.0058594 8.1386719 L 13.808594 5.6152344 A 6.3280063 6.3280063 0 0 0 7.9785156 1.8105469 z M 8.84375 4.0625 A 1.1505467 1.1505467 0 0 1 9.9160156 4.8085938 L 9.9414062 5.5429688 A 1.1505467 1.1505467 0 0 1 8.6914062 6.3535156 A 1.1505467 1.1505467 0 0 1 7.6894531 5.25 A 1.1505467 1.1505467 0 0 1 8.6152344 4.0839844 A 1.1505467 1.1505467 0 0 1 8.84375 4.0625 z "
     id="path826" />
</svg>
