<?xml version="1.0" encoding="UTF-8" standalone="no"?>
<svg
   xmlns:dc="http://purl.org/dc/elements/1.1/"
   xmlns:cc="http://creativecommons.org/ns#"
   xmlns:rdf="http://www.w3.org/1999/02/22-rdf-syntax-ns#"
   xmlns:svg="http://www.w3.org/2000/svg"
   xmlns="http://www.w3.org/2000/svg"
   xmlns:sodipodi="http://sodipodi.sourceforge.net/DTD/sodipodi-0.dtd"
   xmlns:inkscape="http://www.inkscape.org/namespaces/inkscape"
   viewBox="0 0 16 16"
   version="1.1"
   id="svg6"
   sodipodi:docname="run-build.svg"
   inkscape:version="0.92.2 5c3e80d, 2017-08-06">
  <metadata
     id="metadata10">
    <rdf:RDF>
      <cc:Work
         rdf:about="">
        <dc:format>image/svg+xml</dc:format>
        <dc:type
           rdf:resource="http://purl.org/dc/dcmitype/StillImage" />
      </cc:Work>
    </rdf:RDF>
  </metadata>
  <defs
     id="defs3051">
    <style
       type="text/css"
       id="current-color-scheme">
      .ColorScheme-Text {
        color:#4d4d4d;
      }
      </style>
  </defs>
  <path
     style="stroke:none"
     d="M 7,2 V 3.1015625 C 6.3740513,3.230716 5.778669,3.4786814 5.2460938,3.8320312 l -0.78125,-0.78125 -1.4140626,1.4140626 0.78125,0.78125 C 3.480058,5.7789646 3.2334258,6.3743296 3.1054688,7 H 2 v 2 h 1.1015625 c 0.1291535,0.6259486 0.377119,1.221331 0.7304687,1.753906 l -0.78125,0.78125 1.4140626,1.414063 0.78125,-0.78125 C 5.7789646,12.519942 6.3743296,12.766574 7,12.894531 V 14 h 2 v -1.101562 c 0.6259487,-0.129154 1.221331,-0.377119 1.753906,-0.730469 l 0.78125,0.78125 1.414063,-1.414063 -0.78125,-0.78125 C 12.519942,10.221035 12.766574,9.6256703 12.894531,9 H 14 V 7 H 12.898438 C 12.769284,6.3740513 12.521319,5.778669 12.167969,5.2460938 l 0.78125,-0.78125 -1.414063,-1.4140626 -0.78125,0.78125 C 10.221035,3.4800581 9.6256703,3.2334258 9,3.1054688 V 2 Z m 1,2 c 1.0809804,2.4e-6 2.115938,0.4375169 2.869141,1.2128906 C 11.594334,5.9594258 11.999998,6.9592213 12,8 c -3e-6,1.0809805 -0.437517,2.115938 -1.212891,2.869141 C 10.040574,11.594334 9.0407785,11.999998 8,12 6.9190197,11.999997 5.8840619,11.562483 5.1308594,10.787109 4.405666,10.040574 4.0000026,9.0407786 4,8 4.0000025,6.9190197 4.437517,5.884062 5.2128906,5.1308594 5.9594257,4.4056659 6.9592213,4.0000025 8,4 Z"
     class="ColorScheme-Text"
     id="path4"
     inkscape:connector-curvature="0"
     sodipodi:nodetypes="cccccccccccccccccccccccccccccccccccccccccc" />
</svg>
